<?xml version="1.0" standalone="no"?>
<!DOCTYPE svg PUBLIC "-//W3C//DTD SVG 20010904//EN"
 "http://www.w3.org/TR/2001/REC-SVG-20010904/DTD/svg10.dtd">
<svg version="1.0" xmlns="http://www.w3.org/2000/svg"
 width="512.000000pt" height="512.000000pt" viewBox="0 0 512.000000 512.000000"
 preserveAspectRatio="xMidYMid meet">

<g transform="translate(0.000000,512.000000) scale(0.100000,-0.100000)"
fill="#ffffff" stroke="none">
<path d="M2442 4785 c-65 -18 63 51 -1012 -547 -977 -544 -985 -549 -1044
-658 -73 -134 -73 -306 0 -440 52 -95 110 -138 429 -318 l300 -169 5 -809 5
-809 27 -62 c39 -92 93 -169 178 -254 202 -200 504 -328 900 -381 124 -16 536
-16 660 0 399 54 697 180 900 381 85 85 139 162 178 254 l27 62 5 808 5 809
230 129 c127 70 233 128 237 129 4 0 9 -416 10 -924 3 -916 3 -925 24 -952 39
-53 71 -69 134 -69 63 0 95 16 134 69 21 27 21 34 24 1189 2 840 0 1179 -8
1222 -17 87 -55 159 -119 226 -52 54 -127 98 -966 565 -500 279 -937 519 -970
532 -76 32 -213 39 -293 17z m389 -427 c112 -63 515 -287 894 -498 380 -210
704 -396 720 -412 27 -25 30 -35 30 -89 0 -55 -3 -63 -30 -87 -17 -15 -435
-252 -930 -527 -885 -492 -900 -500 -955 -500 -54 0 -70 9 -970 510 l-914 510
-20 48 c-20 47 -20 47 0 94 l20 48 859 478 c473 263 889 494 925 514 101 55
122 50 371 -89z m-915 -2151 c483 -269 523 -287 640 -287 80 0 159 20 237 60
40 20 254 139 477 263 l405 226 3 -680 c2 -756 7 -702 -67 -792 -133 -160
-367 -274 -676 -328 -112 -20 -165 -23 -375 -23 -210 0 -263 3 -375 23 -309
54 -543 168 -676 328 -74 90 -69 36 -69 793 0 374 3 679 8 677 4 -2 215 -119
468 -260z"/>
</g>
</svg>
