<?xml version="1.0" standalone="no"?>
<!DOCTYPE svg PUBLIC "-//W3C//DTD SVG 20010904//EN"
 "http://www.w3.org/TR/2001/REC-SVG-20010904/DTD/svg10.dtd">
<svg version="1.0" xmlns="http://www.w3.org/2000/svg"
 width="128.000000pt" height="128.000000pt" viewBox="0 0 128.000000 128.000000"
 preserveAspectRatio="xMidYMid meet">

<g transform="translate(0.000000,128.000000) scale(0.100000,-0.100000)"
fill="#000000" stroke="none">
<path d="M0 1218 c1 -61 1 -62 14 -33 16 35 51 70 86 84 21 8 14 10 -37 10
l-63 1 0 -62z"/>
<path d="M216 1266 c40 -18 80 -71 89 -117 13 -71 -45 -156 -118 -174 -64 -16
-145 26 -173 90 -11 25 -13 -53 -14 -517 0 -359 3 -548 10 -548 7 0 10 148 10
425 l0 425 135 0 135 0 0 -425 0 -425 80 0 80 0 0 425 0 425 130 0 130 0 0
-57 0 -58 18 27 c55 83 177 127 299 108 139 -23 207 -89 238 -234 12 -55 13
-27 14 292 l1 352 -547 0 c-471 -1 -544 -3 -517 -14z"/>
<path d="M793 620 c-64 -39 -68 -56 -71 -352 l-3 -268 145 0 146 0 0 265 c0
289 -4 313 -55 353 -37 29 -117 30 -162 2z"/>
</g>
</svg>
