<?xml version="1.0" standalone="no"?>
<!DOCTYPE svg PUBLIC "-//W3C//DTD SVG 20010904//EN"
 "http://www.w3.org/TR/2001/REC-SVG-20010904/DTD/svg10.dtd">
<svg version="1.0" xmlns="http://www.w3.org/2000/svg"
 width="512.000000pt" height="512.000000pt" viewBox="0 0 512.000000 512.000000"
 preserveAspectRatio="xMidYMid meet">

<g transform="translate(0.000000,512.000000) scale(0.100000,-0.100000)"
fill="#ffffff" stroke="none">
<path d="M1266 4944 c-204 -49 -346 -236 -346 -454 0 -204 122 -373 318 -441
74 -26 209 -28 282 -4 199 66 330 242 330 445 0 307 -283 527 -584 454z"/>
<path d="M4451 4923 c-23 -24 -58 -137 -255 -823 -253 -880 -245 -841 -176
-888 50 -34 163 -29 238 10 l52 27 0 -124 0 -125 -320 0 c-356 0 -375 -3 -405
-61 -16 -31 -16 -70 0 -111 7 -17 -13 -18 -341 -18 l-349 1 36 19 c135 71 158
248 46 347 -64 56 -73 57 -504 49 l-392 -7 -319 188 c-176 103 -319 189 -318
190 1 1 65 -15 141 -36 l140 -38 3 29 c4 39 -40 130 -80 163 -17 14 -49 36
-72 48 -39 21 -54 22 -329 25 -244 3 -296 1 -337 -13 -62 -21 -128 -79 -160
-141 l-25 -49 -3 -770 c-2 -689 -1 -774 14 -821 20 -63 62 -117 123 -155 l45
-29 -167 0 c-112 0 -167 4 -167 11 0 6 -52 457 -116 1002 -126 1085 -121 1057
-193 1104 -25 17 -49 23 -91 23 -73 0 -116 -27 -149 -94 l-25 -49 128 -1096
c74 -628 134 -1111 143 -1131 19 -47 41 -70 88 -91 35 -16 69 -19 283 -19
l242 0 0 -300 0 -300 -209 0 c-200 0 -209 -1 -242 -23 -19 -12 -40 -36 -48
-52 -26 -55 -133 -450 -133 -492 0 -108 109 -174 209 -126 46 22 65 55 98 171
14 53 35 127 46 165 l20 67 414 0 c327 0 415 -3 415 -13 0 -6 20 -84 45 -172
47 -163 62 -192 117 -221 41 -21 100 -17 138 8 38 26 70 81 70 118 0 38 -125
476 -144 505 -9 14 -31 35 -49 45 -29 18 -51 20 -239 20 l-208 0 0 299 0 300
243 3 c223 3 245 5 277 24 94 55 116 181 46 257 l-25 27 109 0 110 0 0 -667
c0 -409 4 -693 10 -731 22 -134 121 -222 250 -222 129 0 227 87 250 222 7 43
10 324 8 888 -3 923 2 863 -76 944 -70 73 -84 76 -379 76 l-263 0 0 203 0 202
-263 270 c-144 148 -257 266 -252 263 6 -3 165 -97 355 -209 210 -123 365
-208 395 -216 38 -10 95 -12 229 -6 l179 6 -24 -32 c-21 -29 -24 -43 -23 -120
2 -106 26 -169 87 -229 84 -83 1 -76 1097 -82 l975 -5 3 -917 2 -918 -392 0
c-377 0 -393 -1 -435 -21 -92 -44 -122 -171 -60 -252 52 -68 40 -67 589 -67
492 0 494 0 538 22 52 27 78 60 90 114 6 22 10 476 10 1042 l0 1002 28 0 c16
0 57 14 91 31 107 54 161 151 161 291 0 74 -10 103 -44 130 -19 16 -51 18
-299 18 l-278 0 16 30 c13 25 15 99 15 517 l0 488 111 385 c122 421 129 467
90 555 -58 132 -211 207 -280 138z"/>
<path d="M79 4857 c-19 -12 -44 -42 -56 -67 -22 -42 -23 -55 -23 -285 0 -230
1 -243 22 -285 35 -67 66 -85 148 -85 82 0 113 18 148 85 21 42 22 55 22 290
0 235 -1 247 -23 285 -33 59 -78 85 -147 85 -43 0 -66 -6 -91 -23z"/>
</g>
</svg>
