<?xml version="1.0" standalone="no"?>
<!DOCTYPE svg PUBLIC "-//W3C//DTD SVG 20010904//EN"
 "http://www.w3.org/TR/2001/REC-SVG-20010904/DTD/svg10.dtd">
<svg version="1.0" xmlns="http://www.w3.org/2000/svg"
 width="520.000000pt" height="272.000000pt" viewBox="0 0 520.000000 272.000000"
 preserveAspectRatio="xMidYMid meet">

<g transform="translate(0.000000,272.000000) scale(0.100000,-0.100000)"
fill="#000000" stroke="none">
<path d="M967 2138 c-2 -18 -4 -375 -3 -793 l1 -760 28 -3 27 -3 0 130 0 131
40 0 39 0 3 -127 3 -128 28 -3 27 -3 0 130 0 131 40 0 39 0 3 -127 3 -128 28
-3 27 -3 0 130 0 131 40 0 40 0 0 -130 0 -130 30 0 30 0 0 130 0 130 33 0 c24
0 42 9 65 33 l32 33 0 127 0 127 -32 30 c-22 20 -44 30 -65 30 -31 0 -33 2
-33 36 0 34 -37 114 -52 114 -5 0 -8 -34 -8 -75 l0 -75 -40 0 -40 0 0 150 c0
147 -1 151 -27 193 l-28 42 -3 -192 -2 -193 -40 0 -40 0 0 266 c0 257 -1 266
-22 304 -13 22 -26 40 -30 40 -5 0 -8 -137 -8 -305 l0 -305 -40 0 -40 0 0 420
c0 245 4 420 9 420 5 0 65 -91 134 -202 68 -112 198 -322 288 -468 l164 -265
5 -140 5 -140 83 -5 83 -5 77 -125 c71 -114 80 -125 110 -128 18 -2 32 -1 32
2 0 3 -34 60 -75 127 -41 66 -75 122 -75 124 0 1 9 5 20 8 14 3 20 14 20 31 0
14 3 26 8 26 4 0 51 -72 106 -160 96 -156 99 -160 132 -160 l34 0 -79 128
c-43 70 -106 172 -139 227 -60 97 -62 102 -62 168 0 38 4 66 9 63 5 -3 89
-136 187 -296 175 -285 179 -290 211 -290 18 0 33 2 33 4 0 3 -34 59 -75 125
-41 67 -75 123 -75 126 0 3 20 5 44 5 l43 0 79 -130 c79 -129 79 -129 117
-130 l37 0 0 130 0 130 99 0 c94 0 99 1 105 23 3 12 6 97 6 190 l0 167 -105 0
-105 0 0 475 0 475 -30 0 -30 0 0 -475 0 -475 -40 0 -40 0 0 475 0 475 -30 0
-30 0 0 -475 0 -475 -40 0 -40 0 0 475 0 475 -30 0 -30 0 2 -475 3 -475 -31 0
c-29 0 -37 12 -204 283 -95 155 -214 348 -264 429 -50 81 -103 167 -118 192
-23 39 -32 46 -59 46 -21 0 -29 -4 -26 -12 3 -7 149 -249 326 -538 l321 -525
0 -67 c0 -38 -2 -68 -4 -68 -2 0 -172 272 -377 605 l-372 605 -35 0 c-33 0
-34 -1 -20 -22 8 -13 120 -194 248 -403 128 -209 252 -411 276 -450 l43 -70
-47 -3 c-25 -2 -48 0 -50 5 -2 4 -132 217 -290 473 -276 447 -289 465 -320
468 -17 2 -32 1 -32 -2 0 -3 126 -211 281 -462 154 -251 283 -462 286 -470 4
-11 -5 -14 -39 -14 l-45 0 -78 128 c-43 70 -105 170 -137 222 -32 52 -127 208
-211 345 -151 246 -154 250 -189 253 -33 3 -36 1 -41 -30z m1473 -1108 c0 -87
-4 -161 -9 -164 -14 -9 -54 95 -59 155 -3 46 1 68 23 118 15 33 31 58 36 55 5
-3 9 -77 9 -164z m-1324 78 l29 -63 3 63 3 62 35 0 35 0 -3 -137 -3 -138 -36
-3 c-35 -3 -36 -2 -65 60 l-29 63 -3 -62 -3 -63 -34 0 -35 0 0 140 0 140 39 0
c37 0 39 -2 67 -62z m402 50 c8 -8 12 -51 12 -130 0 -140 1 -138 -119 -138
l-81 0 0 140 0 140 88 0 c55 0 92 -4 100 -12z m342 -128 l0 -140 -35 0 -35 0
0 55 0 55 -35 0 -35 0 0 -55 c0 -54 0 -55 -30 -55 l-30 0 0 140 0 140 100 0
100 0 0 -140z m370 80 c0 -33 3 -60 8 -60 4 0 18 27 31 60 23 57 26 60 58 60
18 0 33 -2 33 -4 0 -2 -13 -35 -29 -72 l-29 -68 23 -46 c12 -25 26 -55 29 -67
7 -21 4 -23 -27 -23 -33 0 -36 3 -57 55 -12 30 -26 55 -31 55 -5 0 -9 -25 -9
-56 l0 -55 -32 3 -33 3 -3 138 -3 137 36 0 35 0 0 -60z m310 -55 l0 -115 35 0
35 0 0 115 0 115 35 0 35 0 0 -140 0 -140 -100 0 -100 0 0 140 0 140 30 0 30
0 0 -115z m-90 -291 c0 -46 -4 -73 -10 -69 -5 3 -27 36 -50 73 l-40 67 43 5
c23 3 45 4 50 2 4 -2 7 -37 7 -78z"/>
<path d="M1400 1030 l0 -90 35 0 35 0 0 90 0 90 -35 0 -35 0 0 -90z"/>
<path d="M1722 1088 c3 -29 7 -33 36 -36 31 -3 32 -2 32 32 0 35 -1 36 -36 36
-34 0 -35 -1 -32 -32z"/>
<path d="M2030 1819 l0 -350 26 -45 c14 -24 28 -44 30 -44 2 0 4 178 4 395 l0
395 -30 0 -30 0 0 -351z"/>
<path d="M2810 1695 l0 -475 -25 0 -25 0 0 -190 0 -190 25 0 25 0 0 -130 0
-130 30 0 30 0 0 130 0 130 34 0 c42 0 46 -11 46 -152 l0 -108 30 0 30 0 0
130 0 130 40 0 40 0 0 -130 0 -130 30 0 30 0 0 795 0 795 -30 0 -30 0 0 -475
0 -475 -40 0 -40 0 0 475 0 475 -30 0 -30 0 -2 -502 c-3 -407 -5 -498 -15
-475 -9 19 -20 27 -38 27 l-25 0 0 475 0 475 -30 0 -30 0 0 -475z m109 -605
c13 -44 26 -78 30 -75 3 4 15 39 27 78 l21 72 47 3 46 3 0 -140 0 -141 -30 0
-29 0 -3 73 -3 72 -23 -72 c-22 -71 -24 -73 -56 -73 -33 0 -34 1 -52 68 l-19
67 -5 -65 c-5 -65 -5 -65 -37 -68 l-33 -3 0 140 0 141 48 0 48 0 23 -80z"/>
<path d="M3230 1695 l0 -475 -25 0 -25 0 0 -190 0 -190 25 0 25 0 0 -130 0
-130 30 0 30 0 0 130 0 130 80 0 80 0 1 33 c0 17 0 73 -1 122 -1 50 3 101 8
115 l9 24 14 -24 c9 -16 16 -70 19 -145 l5 -120 57 -3 57 -3 66 -129 c62 -123
67 -130 95 -130 17 0 30 2 30 6 0 3 -30 61 -66 130 l-66 125 48 -3 49 -3 65
-127 c63 -125 66 -128 98 -128 l33 0 -95 184 -96 184 0 76 c0 42 4 76 8 76 4
0 68 -117 141 -260 128 -250 134 -260 162 -260 16 0 29 3 29 6 0 3 -90 182
-200 397 l-201 392 132 260 c73 143 163 319 200 391 38 72 69 134 69 137 0 4
-13 7 -29 7 -32 0 -46 -25 -346 -619 l-88 -173 36 -74 c21 -41 37 -77 37 -79
0 -3 -20 -5 -44 -5 l-44 0 -36 69 c-20 38 -36 76 -36 85 0 14 147 310 331 664
l69 132 -32 0 -33 0 -203 -397 -204 -397 36 -67 c20 -36 36 -71 36 -78 0 -6
-18 -11 -43 -11 l-43 0 -38 78 -38 78 202 398 202 397 -32 -3 c-37 -4 -18 30
-270 -463 l-168 -330 39 -77 39 -78 -65 0 -65 0 0 475 0 475 -30 0 -30 0 0
-475z m190 -665 l0 -140 -35 0 -35 0 0 55 0 55 -35 0 -35 0 0 -55 c0 -54 0
-55 -30 -55 l-30 0 0 140 0 140 100 0 100 0 0 -140z m320 55 c0 -78 -2 -85
-20 -85 -11 0 -20 -5 -20 -10 0 -6 9 -28 20 -50 11 -22 20 -42 20 -45 0 -3
-16 -5 -35 -5 -33 0 -37 4 -62 58 l-28 57 -3 -57 -3 -58 -34 0 -35 0 0 140 0
140 100 0 100 0 0 -85z"/>
<path d="M3280 1085 c0 -33 2 -35 35 -35 33 0 35 2 35 35 0 33 -2 35 -35 35
-33 0 -35 -2 -35 -35z"/>
<path d="M3610 1085 c0 -32 2 -35 30 -35 28 0 30 3 30 35 0 32 -2 35 -30 35
-28 0 -30 -3 -30 -35z"/>
<path d="M4013 1772 l-202 -397 96 -189 c93 -183 97 -192 101 -268 l5 -78 36
0 36 0 65 -128 c62 -121 67 -127 98 -130 l33 -3 -65 130 -66 130 63 3 62 3 3
188 2 187 -135 0 -135 0 0 -29 c0 -59 -21 -40 -77 72 l-56 115 83 163 c45 90
136 269 202 397 l120 232 -34 0 -33 0 -202 -398z m233 -629 c-6 -29 -7 -101
-3 -193 l2 -55 -102 -3 -103 -3 0 141 0 140 106 0 106 0 -6 -27z"/>
<path d="M4110 1085 c0 -33 2 -35 35 -35 33 0 35 2 35 35 0 33 -2 35 -35 35
-33 0 -35 -2 -35 -35z"/>
<path d="M4112 973 c2 -23 8 -29 36 -31 30 -3 32 -1 32 27 0 29 -3 31 -36 31
-33 0 -35 -2 -32 -27z"/>
<path d="M330 1030 l0 -191 138 3 137 3 3 188 2 187 -140 0 -140 0 0 -190z
m139 78 l29 -63 1 63 1 62 35 0 35 0 0 -140 0 -140 -38 0 c-38 0 -39 1 -63 60
-13 33 -27 60 -31 60 -5 0 -8 -27 -8 -60 l0 -60 -30 0 -30 0 0 140 0 140 35 0
c33 0 36 -3 64 -62z"/>
<path d="M652 1033 l3 -188 135 0 135 0 3 188 2 187 -140 0 -140 0 2 -187z
m238 -4 l0 -140 -32 3 c-32 3 -33 4 -36 56 -3 50 -4 52 -33 52 -29 0 -29 -1
-29 -55 l0 -55 -35 0 -35 0 0 140 0 140 100 0 100 0 0 -141z"/>
<path d="M760 1085 c0 -32 2 -35 30 -35 28 0 30 3 30 35 0 32 -2 35 -30 35
-28 0 -30 -3 -30 -35z"/>
<path d="M4512 1033 l3 -188 88 -3 c58 -2 87 -7 87 -14 0 -9 3 -9 12 0 7 7 44
12 95 12 l83 0 0 190 0 190 -79 0 -79 0 -12 -32 -12 -33 -14 33 -14 32 -80 0
-80 0 2 -187z m160 50 l25 -87 22 74 c12 41 24 81 26 88 3 7 22 12 50 12 l45
0 0 -140 0 -140 -30 0 -30 0 -1 78 -1 77 -24 -77 c-24 -77 -25 -78 -58 -78
-32 0 -34 2 -54 68 l-20 67 -1 -67 -1 -68 -35 0 -35 0 0 140 0 140 49 0 48 0
25 -87z"/>
</g>
</svg>
